<svg width="174" height="182" viewBox="0 0 174 182" fill="none" xmlns="http://www.w3.org/2000/svg">
<rect width="174" height="182" rx="10" fill="#0F0708"/>
<g clip-path="url(#clip0_0_1)">
<path d="M71.9347 89.866L86.9471 98.4445L152.894 60.3774V51.7989L116.168 30.6208L57.7266 64.3986L43.2504 56.0882L101.423 22.3104L86.9471 14L21 51.7989V60.3774L57.1905 81.2875C76.7601 70.0282 96.3298 58.769 115.899 47.5097L130.376 55.8201L71.9347 89.866ZM86.9471 115.333L21 77.2663V127.933L86.9471 166L152.894 127.933V111.044L86.9471 149.111L35.7443 119.623V102.734L86.9471 132.222L152.894 94.1552V77.2663L86.9471 115.333Z" fill="url(#paint0_linear_0_1)"/>
<mask id="mask0_0_1" style="mask-type:luminance" maskUnits="userSpaceOnUse" x="21" y="14" width="132" height="152">
<path d="M71.9347 89.866L86.9471 98.4445L152.894 60.3774V51.7989L116.168 30.6208L57.7266 64.3986L43.2504 56.0882L101.423 22.3104L86.9471 14L21 51.7989V60.3774L57.1905 81.2875C76.7601 70.0282 96.3298 58.769 115.899 47.5097L130.376 55.8201L71.9347 89.866ZM86.9471 115.333L21 77.2663V127.933L86.9471 166L152.894 127.933V111.044L86.9471 149.111L35.7443 119.623V102.734L86.9471 132.222L152.894 94.1552V77.2663L86.9471 115.333Z" fill="white"/>
</mask>
<g mask="url(#mask0_0_1)">
<path d="M153.967 13.7319H22.3404V165.732H153.967V13.7319Z" fill="url(#paint1_linear_0_1)"/>
</g>
</g>
<defs>
<linearGradient id="paint0_linear_0_1" x1="24.6547" y1="55.0172" x2="145.532" y2="122.627" gradientUnits="userSpaceOnUse">
<stop stop-color="#A68AF9"/>
<stop offset="0.9993" stop-color="#542AA6"/>
</linearGradient>
<linearGradient id="paint1_linear_0_1" x1="24.9389" y1="54.509" x2="145.816" y2="122.118" gradientUnits="userSpaceOnUse">
<stop stop-color="#A68AF9"/>
<stop offset="0.9993" stop-color="#542AA6"/>
</linearGradient>
<clipPath id="clip0_0_1">
<rect width="132" height="152" fill="white" transform="translate(21 14)"/>
</clipPath>
</defs>
</svg>
