<svg width="132" height="152" viewBox="0 0 132 152" fill="none" xmlns="http://www.w3.org/2000/svg">
<path d="M50.9347 75.866L65.9471 84.4445L131.894 46.3774V37.7989L95.1676 16.6208L36.7266 50.3986L22.2504 42.0882L80.4233 8.31041L65.9471 0L0 37.7989V46.3774L36.1905 67.2875C55.7601 56.0282 75.3298 44.769 94.8995 33.5097L109.376 41.8201L50.9347 75.866ZM65.9471 101.333L0 63.2663V113.933L65.9471 152L131.894 113.933V97.0441L65.9471 135.111L14.7443 105.623V88.7337L65.9471 118.222L131.894 80.1552V63.2663L65.9471 101.333Z" fill="url(#paint0_linear_0_1)"/>
<mask id="mask0_0_1" style="mask-type:luminance" maskUnits="userSpaceOnUse" x="0" y="0" width="132" height="152">
<path d="M50.9347 75.866L65.9471 84.4445L131.894 46.3774V37.7989L95.1676 16.6208L36.7266 50.3986L22.2504 42.0882L80.4233 8.31041L65.9471 0L0 37.7989V46.3774L36.1905 67.2875C55.7601 56.0282 75.3298 44.769 94.8995 33.5097L109.376 41.8201L50.9347 75.866ZM65.9471 101.333L0 63.2663V113.933L65.9471 152L131.894 113.933V97.0441L65.9471 135.111L14.7443 105.623V88.7337L65.9471 118.222L131.894 80.1552V63.2663L65.9471 101.333Z" fill="white"/>
</mask>
<g mask="url(#mask0_0_1)">
<path d="M132.967 -0.268066H1.34039V151.732H132.967V-0.268066Z" fill="url(#paint1_linear_0_1)"/>
</g>
<defs>
<linearGradient id="paint0_linear_0_1" x1="3.6547" y1="41.0172" x2="124.532" y2="108.627" gradientUnits="userSpaceOnUse">
<stop stop-color="#A68AF9"/>
<stop offset="0.9993" stop-color="#542AA6"/>
</linearGradient>
<linearGradient id="paint1_linear_0_1" x1="3.93886" y1="40.509" x2="124.816" y2="108.118" gradientUnits="userSpaceOnUse">
<stop stop-color="#A68AF9"/>
<stop offset="0.9993" stop-color="#542AA6"/>
</linearGradient>
</defs>
</svg>
